<svg width="222" height="44" viewBox="0 0 222 44" xmlns="http://www.w3.org/2000/svg" role="img" aria-label="Panel header: uptime — still failing forward; edit, refresh, settings and power buttons.">
<defs><style>
      :root{--surf:#262024;--surf2:#322A2F;--surf3:#3E343A;--prim:#56464C;--onprim:#F1E3E7;--onprim2:#D8BFC8;--ink:#ECDFE2;--sub:#AE99A0;--rose:#E5A3C0;--roseink:#E5A3C0;--teal:#7FCBD0;--tealink:#7FCBD0;--coral:#EE9478;--coralink:#EE9478;--line:#443A40;}
      @media (prefers-color-scheme: light){:root{--surf:#F5EBE8;--surf2:#EADAD6;--surf3:#E0CCC8;--prim:#6B585C;--onprim:#F7ECEF;--onprim2:#DCC6CE;--ink:#453A3E;--sub:#715B60;--rose:#D77BA8;--roseink:#A34677;--teal:#4FAEB3;--tealink:#2E7F84;--coral:#DD6A48;--coralink:#B54A2C;--line:#DCC8C4;}}
      .surf{fill:var(--surf)} .surf2{fill:var(--surf2)} .surf3{fill:var(--surf3)}
      .prim{fill:var(--prim)} .onprim{fill:var(--onprim)} .onprim2{fill:var(--onprim2)}
      .ink{fill:var(--ink)} .sub{fill:var(--sub)}
      .rose{fill:var(--rose)} .roseink{fill:var(--roseink)}
      .teal{fill:var(--teal)} .tealink{fill:var(--tealink)}
      .coral{fill:var(--coral)} .coralink{fill:var(--coralink)}
      .st{fill:none;stroke-linecap:round;stroke-linejoin:round}
      text{font-family:-apple-system,'Segoe UI Variable Text','Segoe UI',Roboto,'Noto Sans',Ubuntu,sans-serif} .mono{font-family:ui-monospace,SFMono-Regular,Menlo,Consolas,monospace}
    </style></defs>
<path d="M6 34 Q15 12 24 34" fill="none" stroke="var(--rose)" stroke-width="3.6" stroke-linecap="round"/>
  <text x="34" y="20" font-size="12.5" font-weight="700" class="ink">uptime</text>
  <text x="34" y="35" font-size="9.5" class="sub">still failing forward</text>
  <circle cx="133" cy="22" r="11" class="surf2"/>
  <g transform="translate(125.5,14.5) scale(0.75)"><path d="M4 16l0.9-3.4 8-8a1.6 1.6 0 0 1 2.3 0l0.2 0.2a1.6 1.6 0 0 1 0 2.3l-8 8L4 16z" class="st" stroke="var(--sub)" stroke-width="1.8"/></g>
  <circle cx="159" cy="22" r="11" class="surf2"/>
  <g transform="translate(151.5,14.5) scale(0.75)"><path d="M16 8.5A6.3 6.3 0 1 0 16.3 12" class="st" stroke="var(--sub)" stroke-width="2"/><path d="M16.6 4.5v4h-4" class="st" stroke="var(--sub)" stroke-width="2"/></g>
  <circle cx="185" cy="22" r="11" class="surf2"/>
  <g transform="translate(177.5,14.5) scale(0.75)"><circle cx="10" cy="10" r="3.2" class="st" stroke="var(--sub)" stroke-width="2"/><line x1="15.30" y1="10.00" x2="17.30" y2="10.00" class="st" stroke="var(--sub)" stroke-width="2"/><line x1="13.75" y1="13.75" x2="15.16" y2="15.16" class="st" stroke="var(--sub)" stroke-width="2"/><line x1="10.00" y1="15.30" x2="10.00" y2="17.30" class="st" stroke="var(--sub)" stroke-width="2"/><line x1="6.25" y1="13.75" x2="4.84" y2="15.16" class="st" stroke="var(--sub)" stroke-width="2"/><line x1="4.70" y1="10.00" x2="2.70" y2="10.00" class="st" stroke="var(--sub)" stroke-width="2"/><line x1="6.25" y1="6.25" x2="4.84" y2="4.84" class="st" stroke="var(--sub)" stroke-width="2"/><line x1="10.00" y1="4.70" x2="10.00" y2="2.70" class="st" stroke="var(--sub)" stroke-width="2"/><line x1="13.75" y1="6.25" x2="15.16" y2="4.84" class="st" stroke="var(--sub)" stroke-width="2"/></g>
  <circle cx="211" cy="22" r="11" class="surf2"/>
  <g transform="translate(203.5,14.5) scale(0.75)"><path d="M6.2 5.4a6.3 6.3 0 1 0 7.6 0" class="st" stroke="var(--sub)" stroke-width="2"/><line x1="10" y1="2.6" x2="10" y2="8.6" class="st" stroke="var(--sub)" stroke-width="2"/></g>
</svg>
